Coordinates
version=1
nRows=16
nColumns=63
inDegrees=yes

Units are S.I. units (second, meters, Newtons, ...)
If the header above contains a line with 'inDegrees', this indicates whether rotational values are in degrees (yes) or radians (no).

endheader
time	pelvis_tilt	pelvis_list	pelvis_rotation	pelvis_tx	pelvis_ty	pelvis_tz	hip_flexion_r	hip_adduction_r	hip_rotation_r	knee_angle_r	knee_angle_r_beta	ankle_angle_r	subtalar_angle_r	mtp_angle_r	hip_flexion_l	hip_adduction_l	hip_rotation_l	knee_angle_l	knee_angle_l_beta	ankle_angle_l	subtalar_angle_l	mtp_angle_l	L5_S1_Flex_Ext	L5_S1_Lat_Bending	L5_S1_axial_rotation	L4_L5_Flex_Ext	L4_L5_Lat_Bending	L4_L5_axial_rotation	L3_L4_Flex_Ext	L3_L4_Lat_Bending	L3_L4_axial_rotation	L2_L3_Flex_Ext	L2_L3_Lat_Bending	L2_L3_axial_rotation	L1_L2_Flex_Ext	L1_L2_Lat_Bending	L1_L2_axial_rotation	L1_T12_Flex_Ext	L1_T12_Lat_Bending	L1_T12_axial_rotation	Abs_r3	Abs_r2	Abs_r1	Abs_t1	Abs_t2	neck_flexion	neck_bending	neck_rotation	arm_flex_r	arm_add_r	arm_rot_r	elbow_flex_r	pro_sup_r	wrist_flex_r	wrist_dev_r	arm_flex_l	arm_add_l	arm_rot_l	elbow_flex_l	pro_sup_l	wrist_flex_l	wrist_dev_l
5.714286	-5.535323	-7.077283	94.648438	0.201813	0.996750	0.554912	-3.953643	-0.339907	-12.315482	5.454641	0.095201	30.321359	3.610132	0.000000	-2.619495	-0.403862	-0.973868	7.419594	0.129496	31.595874	14.122904	0.000000	-0.516970	0.101603	-0.416981	-0.960065	0.135132	-0.443042	-0.849330	0.247038	-0.443042	-0.590845	0.247038	-0.364858	-0.480058	0.207190	-0.338797	-0.295397	0.157384	-0.312736	-3.692666	1.149358	-2.319122	0.000000	0.000000	23.585654	-1.029286	7.079732	10.552721	-12.180317	148.506742	8.267293	3.681590	-2.521266	-6.542842	10.387984	-10.297461	167.005298	4.637147	5.521328	-8.151172	-6.191863
5.734694	-5.490326	-7.118596	94.966279	0.201021	0.996545	0.554693	-3.939119	-0.335555	-12.883174	5.591495	0.097590	30.479449	4.032185	0.000000	-2.540897	-0.439086	-0.774796	7.485975	0.130655	31.695981	14.221815	0.000000	-0.504652	0.114639	-0.426401	-0.937189	0.152470	-0.453051	-0.829092	0.278734	-0.453051	-0.576766	0.278734	-0.373101	-0.468620	0.233772	-0.346451	-0.288358	0.177576	-0.319801	-3.604676	1.296821	-2.371514	0.000000	0.000000	23.747855	-0.926642	7.539643	10.355628	-12.219055	149.573515	7.929572	3.648113	-2.613532	-6.541197	10.519107	-10.171571	166.826510	4.792793	5.642457	-8.437878	-6.250769
5.755102	-5.439765	-7.176690	95.362493	0.200122	0.996347	0.554460	-3.937303	-0.320339	-13.551697	5.680135	0.099137	30.641085	4.561764	0.000000	-2.427337	-0.481260	-0.516330	7.578700	0.132273	31.804175	14.336955	0.000000	-0.490679	0.128206	-0.439628	-0.911241	0.170514	-0.467104	-0.806137	0.311720	-0.467104	-0.560797	0.311720	-0.384674	-0.455645	0.261438	-0.357198	-0.280374	0.198591	-0.329721	-3.504873	1.450293	-2.445078	0.000000	0.000000	23.891961	-0.826432	7.953714	10.120248	-12.263773	150.666315	7.542815	3.586796	-2.663798	-6.502284	10.671292	-10.032116	166.908495	4.899577	5.595312	-8.605596	-6.271299
5.775510	-5.396535	-7.246316	95.825758	0.199158	0.996164	0.554206	-3.967981	-0.292272	-13.974716	5.681310	0.099158	30.698582	4.727284	0.000000	-2.289924	-0.520834	-0.232402	7.690088	0.134217	31.910379	14.501342	0.000000	-0.475909	0.140026	-0.458525	-0.883811	0.186234	-0.487182	-0.781871	0.340459	-0.487182	-0.543917	0.340459	-0.401209	-0.441929	0.285541	-0.372551	-0.271935	0.216900	-0.343893	-3.399373	1.584001	-2.550176	0.000000	0.000000	24.015352	-0.726390	8.301959	9.860460	-12.303281	151.802675	7.118647	3.512811	-2.700342	-6.427152	10.837554	-9.902040	166.912371	4.987717	5.624290	-8.660916	-6.260097
5.795918	-5.359775	-7.326965	96.369377	0.198104	0.996012	0.553977	-4.023502	-0.255687	-14.309602	5.613633	0.097976	30.691087	4.701290	0.000000	-2.123995	-0.554312	0.137840	7.821221	0.136506	32.009137	14.658126	0.000000	-0.461142	0.150121	-0.489733	-0.856387	0.199661	-0.520341	-0.757610	0.365004	-0.520341	-0.527039	0.365004	-0.428516	-0.428216	0.306127	-0.397908	-0.263497	0.232538	-0.367300	-3.293891	1.698199	-2.723746	0.000000	0.000000	24.115734	-0.633538	8.583731	9.596475	-12.325007	153.204215	6.630139	3.445272	-2.761724	-6.336774	11.011998	-9.777974	166.986012	5.048258	5.632624	-8.589987	-6.206065
5.816327	-5.332478	-7.416826	96.968464	0.197005	0.995896	0.553808	-4.088679	-0.220532	-14.652953	5.511682	0.096197	30.660931	4.631259	0.000000	-1.936106	-0.578685	0.565063	7.961179	0.138949	32.090826	14.813485	0.000000	-0.447077	0.157829	-0.531942	-0.830266	0.209913	-0.565189	-0.734503	0.383746	-0.565189	-0.510964	0.383746	-0.465449	-0.415156	0.321845	-0.432203	-0.255460	0.244477	-0.398957	-3.193425	1.785395	-2.958503	0.000000	0.000000	24.190608	-0.550172	8.780063	9.339691	-12.314778	155.033676	6.056160	3.371194	-2.865308	-6.244302	11.186215	-9.661491	167.243580	5.066697	5.578401	-8.385002	-6.102262
5.836735	-5.316922	-7.520480	97.607947	0.195884	0.995819	0.553739	-4.149682	-0.189889	-14.985446	5.387846	0.094036	30.602765	4.495752	0.000000	-1.711619	-0.590889	1.024837	8.130605	0.141906	32.163462	14.982361	0.000000	-0.433780	0.162621	-0.585334	-0.805573	0.216286	-0.621918	-0.712657	0.395397	-0.621918	-0.495767	0.395397	-0.512168	-0.402808	0.331617	-0.475584	-0.247862	0.251900	-0.439001	-3.098447	1.839604	-3.255455	0.000000	0.000000	24.236063	-0.469933	8.882431	9.105240	-12.267406	157.218307	5.412237	3.297873	-2.975905	-6.145249	11.354005	-9.561904	167.437994	5.058418	5.593813	-8.053331	-5.944567
5.857143	-5.321424	-7.634631	98.239370	0.194813	0.995778	0.553744	-4.202315	-0.175147	-15.227946	5.254690	0.091712	30.510798	4.242052	0.000000	-1.472570	-0.581110	1.483154	8.300705	0.144875	32.210476	15.148796	0.000000	-0.421407	0.163387	-0.641608	-0.782595	0.217304	-0.681708	-0.692330	0.397258	-0.681708	-0.481626	0.397258	-0.561407	-0.391319	0.333178	-0.521306	-0.240792	0.253086	-0.481206	-3.010068	1.848262	-3.568429	0.000000	0.000000	24.243402	-0.402137	8.872439	8.890726	-12.176774	159.707575	4.714670	3.199553	-3.067880	-6.081082	11.505078	-9.481628	167.670472	5.007666	5.631441	-7.628548	-5.756149
5.877551	-5.352749	-7.759474	98.844597	0.193812	0.995773	0.553846	-4.228406	-0.196453	-15.558305	5.153827	0.089951	30.450201	4.115301	0.000000	-1.220123	-0.540482	1.925746	8.470500	0.147838	32.228583	15.310698	0.000000	-0.410272	0.159586	-0.697291	-0.761917	0.212249	-0.740872	-0.674036	0.388017	-0.740872	-0.468900	0.388017	-0.610130	-0.380979	0.325427	-0.566549	-0.234430	0.247198	-0.522968	-2.930534	1.805266	-3.878124	0.000000	0.000000	24.213300	-0.353968	8.753292	8.706102	-12.047880	162.206678	4.021133	3.080637	-3.093636	-6.068482	11.636312	-9.421343	167.998639	4.899189	5.648789	-7.125888	-5.547222
5.897959	-5.414041	-7.888483	99.402673	0.192910	0.995801	0.554020	-4.235791	-0.258759	-15.959046	5.082136	0.088700	30.418014	4.121763	0.000000	-0.968277	-0.464708	2.362422	8.633455	0.150682	32.214042	15.427173	0.000000	-0.400699	0.151182	-0.751170	-0.744138	0.201073	-0.798118	-0.658308	0.367585	-0.798118	-0.457959	0.367585	-0.657274	-0.372089	0.308291	-0.610326	-0.228959	0.234181	-0.563378	-2.862152	1.710205	-4.177783	0.000000	0.000000	24.156253	-0.340574	8.546807	8.562540	-11.908726	164.191282	3.450352	2.981857	-3.009120	-6.092170	11.739904	-9.383501	168.400400	4.745960	5.628809	-6.585381	-5.333222
5.918367	-5.504942	-8.018257	99.871162	0.192154	0.995846	0.554236	-4.217833	-0.364313	-16.359592	5.050427	0.088147	30.423210	4.216260	0.000000	-0.735928	-0.353269	2.768226	8.768014	0.153031	32.162813	15.483936	0.000000	-0.392363	0.138721	-0.794323	-0.728658	0.184499	-0.843969	-0.644614	0.337286	-0.843969	-0.448432	0.337286	-0.695033	-0.364349	0.282879	-0.645388	-0.224196	0.214878	-0.595742	-2.802612	1.569237	-4.417788	0.000000	0.000000	24.087088	-0.381087	8.267927	8.456247	-11.796038	165.231932	3.099628	2.880849	-2.780152	-6.113542	11.817558	-9.363607	168.851813	4.569855	5.579880	-6.066253	-5.129710
5.938776	-5.625508	-8.140486	100.231534	0.191576	0.995889	0.554420	-4.184614	-0.516189	-16.838339	5.060194	0.088317	30.490395	4.527330	0.000000	-0.541810	-0.211377	3.077752	8.865733	0.154736	32.085248	15.545676	0.000000	-0.385425	0.122329	-0.823002	-0.715774	0.162698	-0.874439	-0.633215	0.297431	-0.874439	-0.440503	0.297431	-0.720127	-0.357906	0.249454	-0.668689	-0.220232	0.189488	-0.617251	-2.753055	1.383814	-4.577289	0.000000	0.000000	24.029584	-0.467336	7.949712	8.365550	-11.740624	164.959991	3.042239	2.834614	-2.427075	-6.093750	11.876211	-9.365123	169.294743	4.405588	5.539231	-5.597860	-4.950804
5.959184	-5.773744	-8.250570	100.480122	0.191191	0.995918	0.554519	-4.141676	-0.707988	-17.333833	5.110816	0.089201	30.607869	4.979332	0.000000	-0.395266	-0.040908	3.321261	8.924445	0.155761	31.983108	15.559804	0.000000	-0.380053	0.102414	-0.833549	-0.705797	0.136210	-0.885646	-0.624390	0.249008	-0.885646	-0.434363	0.249008	-0.729356	-0.352918	0.208842	-0.677259	-0.217163	0.158639	-0.625162	-2.714683	1.158523	-4.635952	0.000000	0.000000	24.010249	-0.593638	7.615445	8.269543	-11.742625	163.411731	3.264978	2.839646	-1.989910	-6.038314	11.940174	-9.385152	169.732367	4.304412	5.506208	-5.220106	-4.801889
5.979592	-5.944298	-8.348325	100.593342	0.191037	0.995911	0.554491	-4.086224	-0.935346	-17.786564	5.206987	0.090879	30.771505	5.526373	0.000000	-0.302878	0.152557	3.470932	8.937627	0.155991	31.860222	15.524977	0.000000	-0.375668	0.079752	-0.819051	-0.697653	0.106070	-0.870242	-0.617185	0.193909	-0.870242	-0.429351	0.193909	-0.716670	-0.348845	0.162631	-0.665479	-0.214657	0.123536	-0.614288	-2.683359	0.902172	-4.555318	0.000000	0.000000	24.039786	-0.744309	7.286209	8.151011	-11.789083	160.821275	3.711425	2.874354	-1.507401	-5.976450	12.026710	-9.416144	170.214555	4.300877	5.433239	-4.947556	-4.678011
6.000000	-6.131371	-8.428115	100.613959	0.191055	0.995881	0.554333	-4.032292	-1.184933	-18.244924	5.340560	0.093210	30.981479	6.175487	0.000000	-0.263563	0.360916	3.565968	8.915915	0.155612	31.728657	15.442353	0.000000	-0.373272	0.055156	-0.786239	-0.693203	0.073358	-0.835379	-0.613248	0.134107	-0.835379	-0.426612	0.134107	-0.687959	-0.346620	0.112475	-0.638819	-0.213287	0.085437	-0.589679	-2.666243	0.623941	-4.372825	0.000000	0.000000	24.123743	-0.890341	6.983982	8.007311	-11.873167	157.378498	4.337977	2.950490	-1.019802	-5.905069	12.150387	-9.464575	170.510282	4.438442	5.482474	-4.820697	-4.580423
6.020408	-6.325575	-8.488999	100.533234	0.191241	0.995823	0.554030	-3.982325	-1.448503	-18.698654	5.503966	0.096062	31.234631	6.931777	0.000000	-0.282884	0.577381	3.635834	8.847929	0.154425	31.586135	15.265808	0.000000	-0.372601	0.029873	-0.731294	-0.691957	0.039731	-0.777000	-0.612146	0.072633	-0.777000	-0.425845	0.072633	-0.639882	-0.345997	0.060917	-0.594176	-0.212904	0.046273	-0.548470	-2.661449	0.337927	-4.067237	0.000000	0.000000	24.248399	-1.005628	6.703157	7.830544	-11.976707	153.451996	5.054593	3.017723	-0.542367	-5.831763	12.305532	-9.516304	170.742235	4.686537	5.568178	-4.807389	-4.503095
